<?xml version="1.0" encoding="utf-8"?>
<svg xmlns="http://www.w3.org/2000/svg" viewBox="261.4561 116.2549 88.6884 151.8801" width="88.6884px" height="151.88px">
  <defs>
    <linearGradient id="linearGradient4181" gradientUnits="userSpaceOnUse" gradientTransform="translate(-144.02,0)" x1="340.55" y1="707.61" x2="371.8" y2="707.61" href="#linearGradient3951"/>
    <linearGradient id="linearGradient3951">
      <stop id="stop3953" style="stop-color:#808080" offset="0"/>
      <stop id="stop3955" style="stop-color:#5b5b5b" offset="1"/>
    </linearGradient>
    <linearGradient id="linearGradient4183" gradientUnits="userSpaceOnUse" gradientTransform="translate(-212.78,0)" x1="425.3" y1="686.33" x2="425.3" y2="700.68" href="#linearGradient4015"/>
    <linearGradient id="linearGradient4015">
      <stop id="stop4017" style="stop-color:#000000" offset="0"/>
      <stop id="stop4019" style="stop-color:#000000;stop-opacity:0" offset="1"/>
    </linearGradient>
    <linearGradient id="linearGradient4185" gradientUnits="userSpaceOnUse" gradientTransform="translate(51.033,580)" x1="178.75" y1="127.11" x2="140.99" y2="127.11" href="#linearGradient3993"/>
    <linearGradient id="linearGradient3993">
      <stop id="stop3995" style="stop-color:#585858" offset="0"/>
      <stop id="stop3997" style="stop-color:#434343" offset="1"/>
    </linearGradient>
    <linearGradient id="linearGradient4187" gradientUnits="userSpaceOnUse" gradientTransform="translate(-144.02,0)" x1="340.55" y1="707.61" x2="371.8" y2="707.61" href="#linearGradient3951"/>
    <linearGradient id="linearGradient4189" gradientUnits="userSpaceOnUse" gradientTransform="translate(-144.02,0)" x1="353.86" y1="690.18" x2="353.86" y2="693.88" href="#linearGradient4015"/>
    <linearGradient id="linearGradient4191" gradientUnits="userSpaceOnUse" gradientTransform="translate(-144.02,0)" x1="316.3" y1="614.86" x2="388.55" y2="640.86" href="#linearGradient4204"/>
    <linearGradient id="linearGradient4204">
      <stop offset="0" style="stop-color:#fefef9;stop-opacity:0.31390134" id="stop4206"/>
      <stop offset="1" style="stop-color:#3d3d3d;stop-opacity:.53589" id="stop4208"/>
    </linearGradient>
    <linearGradient id="linearGradient4278" y2="650.59003" gradientUnits="userSpaceOnUse" x2="361.54999" gradientTransform="translate(-144.02,0)" y1="685.29" x1="362.05">
      <stop id="stop4195" style="stop-color:#e9e337;stop-opacity:1" offset="0"/>
      <stop id="stop4197" style="stop-color:#f9fca2;stop-opacity:0" offset="1"/>
    </linearGradient>
  </defs>
  <g transform="matrix(0.9999999999999999, 0, 0, 0.9999999999999999, 94.38012313842773, -464.83496093749994)" id="g4153">
    <path id="path4189" style="opacity:0.68293002;fill:#f9ff00;fill-opacity:1" d="m 211.42,581.09 c -24.493,0 -44.344,19.851 -44.344,44.344 0,11.167 4.1252,21.359 10.938,29.156 3.878,4.0518 6.5995,9.9233 7.4688,16.656 l 0.0191,12.429 c 0,4.4527 3.5756,8.0284 8.0284,8.0284 l 35.78,0 c 4.4527,0 8.0284,-3.5756 8.0284,-8.0284 l -0.0121,-12.429 c 0.86451,-6.7196 3.6103,-12.574 7.4688,-16.625 0.003,-0.01 -0.002,-0.0215 0,-0.0312 6.8156,-7.7976 10.969,-17.986 10.969,-29.156 0,-24.493 -19.851,-44.344 -44.344,-44.344 z"/>
    <rect id="rect4155" style="color:#000000;fill:url(#linearGradient4181)" rx="0" ry="0" height="31.25" width="33.75" y="687.35999" x="194.55"/>
    <rect id="rect4157" style="color:#000000;fill:url(#linearGradient4183)" rx="0" ry="0" height="31.25" width="33.75" y="687.35999" x="194.55"/>
    <path id="path4159" d="m 192.53,695.84 0,2.4375 17.75,-2.4375 -17.75,0 z m 37.75,0.25 -37.75,5.1875 0,2.0625 37.75,-5.1875 0,-2.0625 z m 0,5.0625 -37.75,5.1875 0,2.0625 37.75,-5.1875 0,-2.0625 z m 0,5.0625 -37.75,5.1875 0,2.0312 37.75,-5.1875 0,-2.0312 z m 0,5.0312 -37.75,5.1875 0,2.0625 37.75,-5.1875 0,-2.0625 z" style="fill:url(#linearGradient4185)"/>
    <path id="path4161" d="m 192.17,688.22 0,5.25 c 0,1.385 1.115,2.5 2.5,2.5 l 33.5,0 c 1.385,0 2.5,-1.115 2.5,-2.5 l 0,-5.25 z" style="color:#000000;fill:url(#linearGradient4187)"/>
    <path id="path4163" style="color:#000000;fill:url(#linearGradient4189)" d="m 192.17,688.22 0,5.25 c 0,1.385 1.115,2.5 2.5,2.5 l 33.5,0 c 1.385,0 2.5,-1.115 2.5,-2.5 l 0,-5.25 z"/>
    <path id="path4165" d="m 211.42,581.09 c -24.493,0 -44.344,19.851 -44.344,44.344 0,11.167 4.1252,21.359 10.938,29.156 3.878,4.0518 6.5995,9.9233 7.4688,16.656 l 0.0191,12.429 c 0,4.4527 3.5756,8.0284 8.0284,8.0284 l 35.78,0 c 4.4527,0 8.0284,-3.5756 8.0284,-8.0284 l -0.0121,-12.429 c 0.86451,-6.7196 3.6103,-12.574 7.4688,-16.625 0.003,-0.01 -0.002,-0.0215 0,-0.0312 6.8156,-7.7976 10.969,-17.986 10.969,-29.156 0,-24.493 -19.851,-44.344 -44.344,-44.344 z" style="opacity:0.282;fill:url(#linearGradient4191)"/>
    <path id="path4167" d="m 194.53,718.59 4.25,4.75 25.25,0 4.25,-4.75 z" style="color:#000000;fill:#808080"/>
    <path id="path4169" d="m 198.77,723.34 c 0,1.0374 0.52146,2.0748 1.5644,2.8696 l 7.3055,5.568 c 2.0859,1.5898 5.4444,1.5898 7.5303,0 l 7.3055,-5.568 c 1.043,-0.79489 1.5644,-1.8323 1.5644,-2.8696 z" style="color:#000000;fill:#343434"/>
    <path id="path4171" d="m 211.42,581.09 c -24.493,0 -44.344,19.851 -44.344,44.344 0,11.167 4.1252,21.359 10.938,29.156 3.878,4.0518 6.5995,9.9233 7.4688,16.656 l 0.0191,12.429 c 0,4.4527 3.5756,8.0284 8.0284,8.0284 l 35.78,0 c 4.4527,0 8.0284,-3.5756 8.0284,-8.0284 l -0.0121,-12.429 c 0.86451,-6.7196 3.6103,-12.574 7.4688,-16.625 0.003,-0.01 -0.002,-0.0215 0,-0.0312 6.8156,-7.7976 10.969,-17.986 10.969,-29.156 0,-24.493 -19.851,-44.344 -44.344,-44.344 z" style="fill:url(#linearGradient4278)"/>
    <path id="path4173" d="m 198.38,591.37 c -13.547,6.7471 -22.938,20.62 -22.938,36.812 0,0.60674 0.12823,1.3296 0.1875,1.9688 l 11.938,-2.0312 c 1.356,-11.127 7.9158,-20.595 17.25,-25.906 l -6.4375,-10.844 z" style="fill:#ffffff"/>
  </g>
</svg>