<?xml version="1.0" encoding="utf-8"?>
<svg xmlns="http://www.w3.org/2000/svg" viewBox="151.4574 116.2549 88.6884 151.8801" width="88.6884px" height="151.88px">
  <defs>
    <linearGradient id="linearGradient4252" y2="707.61" gradientUnits="userSpaceOnUse" x2="371.8" gradientTransform="translate(-111.02)" y1="707.61" x1="340.55" href="#linearGradient3951"/>
    <linearGradient id="linearGradient3951">
      <stop id="stop3953" style="stop-color:#808080" offset="0"/>
      <stop id="stop3955" style="stop-color:#5b5b5b" offset="1"/>
    </linearGradient>
    <linearGradient id="linearGradient4254" y2="700.68" gradientUnits="userSpaceOnUse" x2="425.3" gradientTransform="translate(-179.78)" y1="686.33" x1="425.3" href="#linearGradient4015"/>
    <linearGradient id="linearGradient4015">
      <stop id="stop4017" style="stop-color:#000000" offset="0"/>
      <stop id="stop4019" style="stop-color:#000000;stop-opacity:0" offset="1"/>
    </linearGradient>
    <linearGradient id="linearGradient4256" y2="127.11" gradientUnits="userSpaceOnUse" x2="140.99" gradientTransform="translate(84.033 580)" y1="127.11" x1="178.75" href="#linearGradient3993"/>
    <linearGradient id="linearGradient3993">
      <stop id="stop3995" style="stop-color:#585858" offset="0"/>
      <stop id="stop3997" style="stop-color:#434343" offset="1"/>
    </linearGradient>
    <linearGradient id="linearGradient4260" y2="693.88" gradientUnits="userSpaceOnUse" x2="353.86" gradientTransform="translate(-111.02)" y1="690.18" x1="353.86" href="#linearGradient4015"/>
    <linearGradient id="linearGradient4262" y2="640.86" gradientUnits="userSpaceOnUse" x2="388.55" gradientTransform="translate(-111.02)" y1="614.86" x1="316.3" href="#linearGradient4115"/>
    <linearGradient id="linearGradient4115">
      <stop id="stop4117" style="stop-color:#959595;stop-opacity:.30622" offset="0"/>
      <stop id="stop4119" style="stop-color:#3d3d3d;stop-opacity:.53589" offset="1"/>
    </linearGradient>
    <linearGradient id="linearGradient4264" y2="652.84" gradientUnits="userSpaceOnUse" x2="362.05" gradientTransform="translate(-111.02)" y1="685.29" x1="362.05">
      <stop id="stop4127" style="stop-color:#b9b9b9" offset="0"/>
      <stop id="stop4129" style="stop-color:#cecece;stop-opacity:0" offset="1"/>
    </linearGradient>
  </defs>
  <g id="g4131" transform="matrix(0.9999999999999999, 0, 0, 0.9999999999999999, -48.61857700347899, -464.83496093749994)">
    <rect id="rect3835" style="color:#000000;fill:url(#linearGradient4252)" rx="0" ry="0" height="31.25" width="33.75" y="687.36" x="227.55"/>
    <rect id="rect4011" style="color:#000000;fill:url(#linearGradient4254)" rx="0" ry="0" height="31.25" width="33.75" y="687.36" x="227.55"/>
    <path id="path3869" d="m225.53 695.84v2.4375l17.75-2.4375h-17.75zm37.75 0.25-37.75 5.1875v2.0625l37.75-5.1875v-2.0625zm0 5.0625-37.75 5.1875v2.0625l37.75-5.1875v-2.0625zm0 5.0625-37.75 5.1875v2.0312l37.75-5.1875v-2.0312zm0 5.0312-37.75 5.1875v2.0625l37.75-5.1875v-2.0625z" style="fill:url(#linearGradient4256)"/>
    <path id="rect3837" d="m225.17 688.22v5.25c0 1.385 1.115 2.5 2.5 2.5h33.5c1.385 0 2.5-1.115 2.5-2.5v-5.25z" style="color:#000000;fill:url(#linearGradient4252)"/>
    <path id="path4001" style="color:#000000;fill:url(#linearGradient4260)" d="m225.17 688.22v5.25c0 1.385 1.115 2.5 2.5 2.5h33.5c1.385 0 2.5-1.115 2.5-2.5v-5.25z"/>
    <path id="path3032" d="m244.42 581.09c-24.493 0-44.344 19.851-44.344 44.344 0 11.167 4.1252 21.359 10.938 29.156 3.878 4.0518 6.5995 9.9233 7.4688 16.656l0.0191 12.429c0 4.4527 3.5756 8.0284 8.0284 8.0284h35.78c4.4527 0 8.0284-3.5756 8.0284-8.0284l-0.0121-12.429c0.86451-6.7196 3.6103-12.574 7.4688-16.625 0.003-0.01-0.002-0.0215 0-0.0312 6.8156-7.7976 10.969-17.986 10.969-29.156 0-24.493-19.851-44.344-44.344-44.344z" style="opacity:.68293;fill:url(#linearGradient4262)"/>
    <path id="rect3880" d="m227.53 718.59 4.25 4.75h25.25l4.25-4.75z" style="color:#000000;fill:#808080"/>
    <path id="rect3883" d="m231.77 723.34c0 1.0374 0.52146 2.0748 1.5644 2.8696l7.3055 5.568c2.0859 1.5898 5.4444 1.5898 7.5303 0l7.3055-5.568c1.043-0.79489 1.5644-1.8323 1.5644-2.8696z" style="color:#000000;fill:#343434"/>
    <path id="path4121" d="m244.42 581.09c-24.493 0-44.344 19.851-44.344 44.344 0 11.167 4.1252 21.359 10.938 29.156 3.878 4.0518 6.5995 9.9233 7.4688 16.656l0.0191 12.429c0 4.4527 3.5756 8.0284 8.0284 8.0284h35.78c4.4527 0 8.0284-3.5756 8.0284-8.0284l-0.0121-12.429c0.86451-6.7196 3.6103-12.574 7.4688-16.625 0.003-0.01-0.002-0.0215 0-0.0312 6.8156-7.7976 10.969-17.986 10.969-29.156 0-24.493-19.851-44.344-44.344-44.344z" style="fill:url(#linearGradient4264)"/>
    <path id="path3948" d="m231.38 591.37c-13.547 6.7471-22.938 20.62-22.938 36.812 0 0.60674 0.12823 1.3296 0.1875 1.9688l11.938-2.0312c1.356-11.127 7.9158-20.595 17.25-25.906l-6.4375-10.844z" style="fill:#ffffff"/>
  </g>
</svg>